<?xml version="1.0" encoding="UTF-8" standalone="no"?>
<svg
   xmlns:dc="http://purl.org/dc/elements/1.1/"
   xmlns:cc="http://creativecommons.org/ns#"
   xmlns:rdf="http://www.w3.org/1999/02/22-rdf-syntax-ns#"
   xmlns:svg="http://www.w3.org/2000/svg"
   xmlns="http://www.w3.org/2000/svg"
   xmlns:sodipodi="http://sodipodi.sourceforge.net/DTD/sodipodi-0.dtd"
   xmlns:inkscape="http://www.inkscape.org/namespaces/inkscape"
   id="Layer_1"
   data-name="Layer 1"
   viewBox="0 0 166.08 192.00001"
   version="1.1"
   sodipodi:docname="spacewalk_blue.svg"
   width="166.08"
   height="192"
   inkscape:version="0.92.3 (2405546, 2018-03-11)">
  <metadata
     id="metadata58">
    <rdf:RDF>
      <cc:Work
         rdf:about="">
        <dc:format>image/svg+xml</dc:format>
        <dc:type
           rdf:resource="http://purl.org/dc/dcmitype/StillImage" />
        <dc:title>spacewalk</dc:title>
      </cc:Work>
    </rdf:RDF>
  </metadata>
  <sodipodi:namedview
     pagecolor="#ffffff"
     bordercolor="#666666"
     borderopacity="1"
     objecttolerance="10"
     gridtolerance="10"
     guidetolerance="10"
     inkscape:pageopacity="0"
     inkscape:pageshadow="2"
     inkscape:window-width="1920"
     inkscape:window-height="983"
     id="namedview56"
     showgrid="false"
     fit-margin-top="0"
     fit-margin-left="0"
     fit-margin-right="0"
     fit-margin-bottom="0"
     inkscape:zoom="2.3548607"
     inkscape:cx="43.802533"
     inkscape:cy="96.723013"
     inkscape:window-x="0"
     inkscape:window-y="666"
     inkscape:window-maximized="1"
     inkscape:current-layer="Layer_1" />
  <defs
     id="defs33">
    <style
       id="style31">.cls-1{fill:#00aad4;}.cls-2{fill:#212121;}.cls-3,.cls-5{fill:#fff;}.cls-4{opacity:0.84;isolation:isolate;}.cls-5{stroke:#f1f2f2;stroke-width:0.5px;}</style>
  </defs>
  <title
     id="title35">spacewalk</title>
  <g
     id="g80"
     transform="scale(1.3316228,1.3546885)">
    <g
       id="g62">
      <polygon
         class="cls-1"
         points="124.72,35.43 62.36,0 0,35.43 0,106.3 62.36,141.73 124.72,106.3 "
         id="polygon37"
         style="fill:#00aad4" />
      <polygon
         class="cls-2"
         points="62.26,11.65 114.7,41.42 114.7,100.94 62.27,130.71 9.82,100.94 9.82,41.41 "
         id="polygon39"
         style="fill:#212121" />
    </g>
    <path
       transform="translate(-6.32,-2.87)"
       d="m 67.85,30.43 a 13,13 0 0 0 -10.18,6.32 11.23,11.23 0 0 0 -1.58,4.51 c 0,0 0,0 0,0 -0.86,2.31 -0.61,5.94 3.29,11.14 l 0.49,0.17 c 0.41,0.58 0.85,1.18 1.34,1.8 -0.53,0.26 -1.15,0.51 -1.81,0.79 l -0.06,-0.32 -2.16,0.77 0.24,0.44 A 10.92,10.92 0 0 0 53.5,59 2.77,2.77 0 0 0 52.05,59.25 c -0.66,-0.16 -2.72,-0.79 -2.87,-0.27 -0.15,0.52 -0.08,0.76 0.27,1 a 8.37,8.37 0 0 0 1.37,0.55 c -0.94,0.35 -2.12,-0.17 -2.55,0.79 0,0.62 0.61,0.56 1,0.65 a 3.44,3.44 0 0 1 1.26,0.32 c -0.82,0.7 -1.69,1.55 -1.47,1.94 0.41,0.71 0.92,0.32 1.34,0.19 a 3.66,3.66 0 0 1 1.32,-0.35 c -0.43,0.9 -0.84,2 -0.5,2.21 0.61,0.44 0.9,-0.08 1.2,-0.35 0.65,-0.79 0.84,-1.56 1.88,-1.92 a 9.37,9.37 0 0 1 0.76,1.09 c 0.25,0.39 1.45,0.76 1.15,-0.5 a 12.24,12.24 0 0 1 -0.27,-2.43 2.79,2.79 0 0 0 0,-0.95 c 1.89,-1.62 4.52,-2.58 5.9,-2.13 0.2,0.59 0.37,1.11 0.52,1.61 a 6.94,6.94 0 0 0 -0.54,2.65 6.83,6.83 0 0 0 0,1.12 6.72,6.72 0 0 0 0.57,2.4 L 62,66.75 c -1.37,-0.61 -2.53,-1.31 -4.32,-0.82 -1.1,0.3 -3.12,2.88 -4.63,4.87 a 7.52,7.52 0 0 0 -6.9,-4 7,7 0 0 0 -5.08,2.36 8.28,8.28 0 0 0 0.39,10.7 11.86,11.86 0 0 0 4.18,2.6 10.35,10.35 0 0 0 5.42,3.54 2.05,2.05 0 0 0 0.6,0.06 6.34,6.34 0 0 0 6.15,-6.38 c 0.84,-4 2.9,-6.36 5,-7.33 L 64,72.11 V 72 c 2,-0.46 3.84,0.31 4.46,2.1 a 5.27,5.27 0 0 0 -0.65,3.29 v 0 l 0.22,1.32 h 0.32 c 0.73,1.42 2.25,3.15 5,5.71 h -0.13 a 1,1 0 0 0 0.22,0.14 c 0.85,1.69 -3.79,3 -3.59,5.49 v 0 0 a 2.51,2.51 0 0 0 0.46,1.18 c 0.2,0.26 0.7,1.34 1.37,1.5 a 14.51,14.51 0 0 0 2.33,0.3 17.08,17.08 0 0 0 2.4,0 6,6 0 0 0 2,-0.69 3.66,3.66 0 0 0 1.51,-3.44 c -0.07,-0.84 -0.54,-1.59 -0.39,-2.44 0.15,-0.85 0.54,-2.1 -0.88,-3.15 -0.93,-0.68 -1.75,-2.64 -2.19,-4.49 h 0.19 L 76.54,77.29 H 76.19 A 7.41,7.41 0 0 1 76,76.15 c 0.11,-2.3 1.13,-2 2.66,-6.16 A 10.46,10.46 0 0 0 79,66.61 h 0.27 l -0.33,-3.29 h -0.36 a 53.27,53.27 0 0 0 -1.58,-6 18.12,18.12 0 0 1 8.43,3 A 16.31,16.31 0 0 1 83.6,63 c -1.17,1.32 0.51,1.64 1.06,1.32 a 12.81,12.81 0 0 1 1.61,-0.82 c 1,1.1 0.73,2.15 1,3.52 0.19,0.52 0.19,1.32 1.2,1.18 0.56,-0.07 0.75,-1.61 0.82,-3 a 4.92,4.92 0 0 1 1.36,1.26 c 0.42,0.43 0.79,1.2 1.73,0.61 0.51,-0.32 0,-1.89 -0.5,-3.25 a 4.61,4.61 0 0 1 1.7,0.43 c 0.53,0.16 1.19,0.58 1.62,-0.14 0.1,-1.43 -1.65,-1.55 -2.55,-2.57 a 11.51,11.51 0 0 0 2,0.22 c 0.55,0 0.75,-0.15 0.93,-1 C 95.76,59.91 92.86,59.57 92,59.34 A 3.72,3.72 0 0 0 89.1,57.83 14.53,14.53 0 0 0 83.19,53.2 L 83.38,52.74 80.47,52 v 0.39 a 14.25,14.25 0 0 0 -4.13,-0.2 c 2.59,-2.63 4.35,-5.3 4.35,-9.62 0,-6.31 -5.78,-11.87 -11.71,-12.11 -0.37,0 -0.73,0 -1.09,0 z"
       class="cls-3"
       id="path8953"
       inkscape:connector-curvature="0"
       style="fill:#ffffff" />
    <path
       transform="translate(-6.32,-2.87)"
       d="m 61.93,40.48 a 20.15,20.15 0 0 0 -5.84,0.76 c -0.88,2.31 -0.65,6 3.28,11.2 l 1.06,0.38 c 0.8,0.26 8.39,0.39 10,-0.26 1.61,-0.65 9,-5.82 1.3,-10.56 -1.31,-0.8 -5.73,-1.56 -9.8,-1.52 z"
       class="cls-1"
       id="path9001"
       inkscape:connector-curvature="0"
       style="fill:#00aad4" />
    <g
       class="cls-4"
       id="path9095"
       style="opacity:0.83999999;isolation:isolate">
      <ellipse
         id="ellipse43"
         ry="2.79"
         rx="2.8499999"
         cy="41.91"
         cx="54.77"
         class="cls-3"
         style="fill:#ffffff" />
    </g>
    <path
       transform="translate(-6.32,-2.87)"
       d="M 33.48,98.64 A 2,2 0 0 0 32.26,98.26 1.42,1.42 0 0 0 31.38,98.52 1,1 0 0 0 31,99.38 q 0,0.59 1,1.05 1.61,0.79 1.77,0.9 a 2.31,2.31 0 0 1 0.18,3.6 2.64,2.64 0 0 1 -1.76,0.59 3.15,3.15 0 0 1 -1.78,-0.53 0.54,0.54 0 0 1 -0.28,-0.45 0.31,0.31 0 0 1 0.35,-0.35 0.65,0.65 0 0 1 0.36,0.12 2.8,2.8 0 0 0 1.5,0.43 1.62,1.62 0 0 0 1.09,-0.35 1.47,1.47 0 0 0 0.47,-1.18 1.53,1.53 0 0 0 -0.94,-1.4 L 31.17,101 a 1.73,1.73 0 0 1 -0.94,-1.57 1.88,1.88 0 0 1 0.62,-1.5 2.08,2.08 0 0 1 1.42,-0.49 2.71,2.71 0 0 1 1.64,0.54 0.6,0.6 0 0 1 0.29,0.48 0.28,0.28 0 0 1 -0.32,0.31 0.66,0.66 0 0 1 -0.39,-0.16"
       class="cls-5"
       id="path5110"
       inkscape:connector-curvature="0"
       style="fill:#ffffff;stroke:#f1f2f2;stroke-width:0.5px" />
    <path
       transform="translate(-6.32,-2.87)"
       d="m 38.83,98.13 a 0.37,0.37 0 0 1 0.42,-0.41 h 1.88 a 2.36,2.36 0 0 1 1.83,0.73 2.29,2.29 0 0 1 0.6,1.61 2.36,2.36 0 0 1 -0.57,1.59 2.15,2.15 0 0 1 -1.7,0.71 h -1.7 V 105 a 0.33,0.33 0 0 1 -0.37,0.38 0.34,0.34 0 0 1 -0.38,-0.38 v -6.87 m 2.06,0.34 h -1.3 v 3.14 h 1.47 a 1.76,1.76 0 0 0 1.3,-0.49 1.46,1.46 0 0 0 0.44,-1.08 A 1.43,1.43 0 0 0 42.33,99 2,2 0 0 0 40.89,98.5"
       class="cls-5"
       id="path5112"
       inkscape:connector-curvature="0"
       style="fill:#ffffff;stroke:#f1f2f2;stroke-width:0.5px" />
    <path
       transform="translate(-6.32,-2.87)"
       d="m 47.87,103 h 3.06 L 49.42,98.79 47.87,103 m 3.4,0.85 H 47.61 L 47.23,105 q -0.13,0.4 -0.47,0.4 -0.34,0 -0.33,-0.36 a 0.7,0.7 0 0 1 0,-0.22 l 2.34,-6.62 a 0.62,0.62 0 0 1 1.2,0 l 2.42,6.62 a 0.72,0.72 0 0 1 0,0.23 0.31,0.31 0 0 1 -0.35,0.35 0.36,0.36 0 0 1 -0.37,-0.26 l -0.48,-1.29"
       class="cls-5"
       id="path5114"
       inkscape:connector-curvature="0"
       style="fill:#ffffff;stroke:#f1f2f2;stroke-width:0.5px" />
    <path
       transform="translate(-6.32,-2.87)"
       d="m 61.39,104 a 0.39,0.39 0 0 1 0.28,-0.12 0.34,0.34 0 0 1 0.25,0.1 0.35,0.35 0 0 1 0.1,0.26 0.5,0.5 0 0 1 -0.2,0.37 3.16,3.16 0 0 1 -2.21,0.87 3.34,3.34 0 0 1 -2.46,-1 4.05,4.05 0 0 1 -1.12,-3 4.12,4.12 0 0 1 1,-2.88 3.39,3.39 0 0 1 2.33,-1.15 3.09,3.09 0 0 1 2.43,0.86 0.5,0.5 0 0 1 0.2,0.37 0.37,0.37 0 0 1 -0.1,0.26 0.34,0.34 0 0 1 -0.25,0.1 0.39,0.39 0 0 1 -0.28,-0.12 2.22,2.22 0 0 0 -1.63,-0.67 2.55,2.55 0 0 0 -1.9,0.83 3.36,3.36 0 0 0 -0.83,2.42 3.31,3.31 0 0 0 0.87,2.39 2.52,2.52 0 0 0 1.88,0.82 2.26,2.26 0 0 0 1.66,-0.68"
       class="cls-5"
       id="path5116"
       inkscape:connector-curvature="0"
       style="fill:#ffffff;stroke:#f1f2f2;stroke-width:0.5px" />
    <path
       transform="translate(-6.32,-2.87)"
       d="m 65.66,98.19 q 0,-0.47 0.42,-0.47 h 2.63 a 0.34,0.34 0 0 1 0.38,0.38 0.33,0.33 0 0 1 -0.38,0.37 h -2.3 V 101 h 2.21 a 0.34,0.34 0 0 1 0.38,0.39 q 0,0.36 -0.38,0.36 h -2.21 v 2.84 h 2.38 q 0.44,0 0.44,0.38 0,0.38 -0.44,0.37 h -2.71 q -0.28,0 -0.35,-0.09 a 0.66,0.66 0 0 1 -0.07,-0.37 v -6.69"
       class="cls-5"
       id="path5118"
       inkscape:connector-curvature="0"
       style="fill:#ffffff;stroke:#f1f2f2;stroke-width:0.5px" />
    <path
       transform="translate(-6.32,-2.87)"
       d="m 73.93,98.09 1.07,6.34 1.76,-6.33 a 0.51,0.51 0 0 1 0.55,-0.39 0.5,0.5 0 0 1 0.54,0.39 l 1.67,6.33 1,-6.32 q 0.07,-0.42 0.44,-0.42 a 0.39,0.39 0 0 1 0.31,0.14 0.38,0.38 0 0 1 0.08,0.35 l -1.2,6.67 A 0.58,0.58 0 0 1 79.51,105.39 0.5,0.5 0 0 1 79,105 l -1.7,-6.2 -1.7,6 a 0.65,0.65 0 0 1 -0.68,0.53 q -0.53,0 -0.6,-0.44 l -1.18,-6.75 a 0.36,0.36 0 0 1 0.08,-0.34 0.39,0.39 0 0 1 0.3,-0.13 q 0.34,0 0.4,0.38"
       class="cls-5"
       id="path5120"
       inkscape:connector-curvature="0"
       style="fill:#ffffff;stroke:#f1f2f2;stroke-width:0.5px" />
    <path
       transform="translate(-6.32,-2.87)"
       d="m 86.17,103 h 3.06 L 87.72,98.79 86.17,103 m 3.4,0.85 H 85.92 L 85.53,105 q -0.13,0.4 -0.47,0.4 -0.34,0 -0.33,-0.36 a 0.7,0.7 0 0 1 0,-0.22 l 2.34,-6.62 a 0.62,0.62 0 0 1 1.2,0 l 2.42,6.62 a 0.72,0.72 0 0 1 0,0.23 0.31,0.31 0 0 1 -0.35,0.35 0.36,0.36 0 0 1 -0.37,-0.26 l -0.48,-1.29"
       class="cls-5"
       id="path5122"
       inkscape:connector-curvature="0"
       style="fill:#ffffff;stroke:#f1f2f2;stroke-width:0.5px" />
    <path
       transform="translate(-6.32,-2.87)"
       d="m 94.84,98.09 a 0.33,0.33 0 0 1 0.37,-0.38 0.34,0.34 0 0 1 0.38,0.38 v 6.53 h 2 A 0.33,0.33 0 0 1 98,105 a 0.34,0.34 0 0 1 -0.38,0.38 h -2.27 q -0.51,0 -0.51,-0.59 v -6.7"
       class="cls-5"
       id="path5124"
       inkscape:connector-curvature="0"
       style="fill:#ffffff;stroke:#f1f2f2;stroke-width:0.5px" />
    <path
       transform="translate(-6.32,-2.87)"
       d="m 101.84,98 q 0,-0.32 0.37,-0.32 0.37,0 0.39,0.32 v 2.92 l 3.61,-3.12 a 0.37,0.37 0 0 1 0.24,-0.09 0.38,0.38 0 0 1 0.29,0.13 0.37,0.37 0 0 1 0.13,0.28 0.31,0.31 0 0 1 -0.1,0.24 l -3.49,3 3.67,3.34 a 0.37,0.37 0 0 1 0.13,0.28 0.37,0.37 0 0 1 -0.11,0.27 0.38,0.38 0 0 1 -0.28,0.11 0.51,0.51 0 0 1 -0.35,-0.16 l -3.73,-3.51 V 105 q 0,0.34 -0.37,0.34 -0.37,0 -0.39,-0.34 v -7"
       class="cls-5"
       id="path5126"
       inkscape:connector-curvature="0"
       style="fill:#ffffff;stroke:#f1f2f2;stroke-width:0.5px" />
  </g>
</svg>
