<?xml version="1.0" encoding="UTF-8" standalone="no"?>
<svg
   xmlns:dc="http://purl.org/dc/elements/1.1/"
   xmlns:cc="http://creativecommons.org/ns#"
   xmlns:rdf="http://www.w3.org/1999/02/22-rdf-syntax-ns#"
   xmlns:svg="http://www.w3.org/2000/svg"
   xmlns="http://www.w3.org/2000/svg"
   xmlns:sodipodi="http://sodipodi.sourceforge.net/DTD/sodipodi-0.dtd"
   xmlns:inkscape="http://www.inkscape.org/namespaces/inkscape"
   id="Layer_1"
   data-name="Layer 1"
   viewBox="0 0 166.08 192.00001"
   version="1.1"
   sodipodi:docname="spacewalk_black.svg"
   width="166.08"
   height="192"
   inkscape:version="0.92.3 (2405546, 2018-03-11)"
   inkscape:export-filename="/home/msuchy/projects/stickers/hexagons/spacewalk-black.png"
   inkscape:export-xdpi="104.62"
   inkscape:export-ydpi="104.62">
  <metadata
     id="metadata29">
    <rdf:RDF>
      <cc:Work
         rdf:about="">
        <dc:format>image/svg+xml</dc:format>
        <dc:type
           rdf:resource="http://purl.org/dc/dcmitype/StillImage" />
        <dc:title>spacewalk</dc:title>
      </cc:Work>
    </rdf:RDF>
  </metadata>
  <sodipodi:namedview
     pagecolor="#ffffff"
     bordercolor="#666666"
     borderopacity="1"
     objecttolerance="10"
     gridtolerance="10"
     guidetolerance="10"
     inkscape:pageopacity="0"
     inkscape:pageshadow="2"
     inkscape:window-width="1790"
     inkscape:window-height="1080"
     id="namedview27"
     showgrid="false"
     fit-margin-top="0"
     fit-margin-left="0"
     fit-margin-right="0"
     fit-margin-bottom="0"
     inkscape:zoom="1.665138"
     inkscape:cx="-55.648236"
     inkscape:cy="70.865003"
     inkscape:window-x="2113"
     inkscape:window-y="723"
     inkscape:window-maximized="0"
     inkscape:current-layer="Layer_1" />
  <defs
     id="defs4">
    <style
       id="style2">.cls-1{fill:#404140;}.cls-2,.cls-5{fill:#fff;}.cls-3{fill:#00aad4;}.cls-4{opacity:0.84;isolation:isolate;}.cls-5{stroke:#f1f2f2;stroke-width:0.5px;}</style>
  </defs>
  <title
     id="title6">spacewalk</title>
  <polygon
     points="124.72,35.43 62.36,0 0,35.43 0,106.3 62.36,141.73 124.72,106.3 "
     id="polygon8"
     transform="scale(1.3316228,1.3546885)" />
  <polygon
     class="cls-1"
     points="62.26,11.65 114.7,41.42 114.7,100.94 62.27,130.71 9.82,100.94 9.82,41.41 "
     id="polygon10"
     transform="scale(1.3316228,1.3546885)"
     style="fill:#404140" />
  <path
     id="path8953"
     class="cls-2"
     d="M 81.934753,37.348762 A 17.311097,17.61095 0 0 0 68.3522,45.910393 14.954124,15.213152 0 0 0 66.248236,52.020038 c 0,0 0,0 0,0 -1.145196,3.129331 -0.81229,8.04685 4.381039,15.09123 l 0.652495,0.230297 c 0.545966,0.785719 1.13188,1.598532 1.784375,2.438439 -0.70576,0.352219 -1.531366,0.690891 -2.410237,1.070204 l -0.0799,-0.4335 -2.876305,1.04311 0.319589,0.596063 a 14.541321,14.793198 0 0 0 -5.193329,4.036972 3.6885953,3.7524871 0 0 0 -1.930853,0.338672 c -0.878871,-0.21675 -3.622014,-1.070204 -3.821757,-0.365766 -0.199744,0.704438 -0.10653,1.029563 0.359538,1.354688 a 11.145683,11.338743 0 0 0 1.824323,0.745079 c -1.251725,0.474141 -2.82304,-0.230297 -3.395638,1.070204 0,0.839907 0.81229,0.758625 1.331623,0.880547 a 4.5807826,4.6601284 0 0 1 1.677845,0.433501 c -1.091931,0.948282 -2.250443,2.099767 -1.957486,2.628095 0.545965,0.961829 1.225093,0.433501 1.784375,0.257391 a 4.8737396,4.9581599 0 0 1 1.784374,-0.568969 c -0.572598,1.21922 -1.118563,2.709377 -0.665811,2.993862 0.81229,0.596063 1.19846,-0.108375 1.597947,-0.474141 0.865555,-1.070204 1.118563,-2.113314 2.503451,-2.601002 a 12.477306,12.693431 0 0 1 0.985401,1.43597 c 0.332906,0.528328 1.930853,1.029563 1.531366,-0.677345 a 16.299064,16.581387 0 0 1 -0.359538,-3.291893 3.7152277,3.7795809 0 0 0 0,-1.286954 c 2.516767,-2.194595 6.018935,-3.495096 7.856575,-2.885486 0.266324,0.799266 0.4927,1.503704 0.692444,2.181048 a 9.2414625,9.4015381 0 0 0 -0.719077,3.589925 9.094984,9.2525224 0 0 0 0,1.517251 8.9485055,9.1035067 0 0 0 0.759025,3.251252 L 74.237973,86.49686 c -1.890904,-0.772172 -3.435587,-1.734001 -5.885773,-1.070204 -1.464785,0.406407 -4.154663,3.901503 -6.165414,6.597333 a 10.013804,10.187257 0 0 0 -9.188197,-5.418754 9.3213598,9.4828194 0 0 0 -6.764644,3.197065 11.025837,11.216821 0 0 0 0.519333,14.49517 15.793047,16.066606 0 0 0 5.619448,3.49509 13.782296,14.021026 0 0 0 7.20408,4.87688 2.7298268,2.7771114 0 0 0 0.798973,0.0813 8.4424888,8.588725 0 0 0 8.189481,-8.64291 c 1.118563,-5.418754 3.861706,-8.615819 6.658114,-9.929867 l 1.531366,-0.365766 v -0.149016 c 2.663246,-0.623156 5.113432,0.419954 5.939038,2.844846 a 7.0176523,7.1392084 0 0 0 -0.865555,4.456923 v 0 l 0.292957,1.78819 h 0.42612 c 0.972084,1.92366 2.996151,4.26727 6.658114,7.73527 h -0.173111 a 1.3316228,1.3546885 0 0 0 0.292957,0.18966 c 1.131879,2.28942 -5.046851,4.06406 -4.780526,7.43724 v 0 0 a 3.3423733,3.4002681 0 0 0 0.612546,1.59853 c 0.266325,0.35222 0.932136,1.81528 1.824324,2.03203 a 19.321847,19.65653 0 0 0 3.102681,0.40641 22.744118,23.138079 0 0 0 3.195895,0 7.989737,8.128131 0 0 0 2.663245,-0.93473 4.8737396,4.9581599 0 0 0 2.010751,-4.66013 c -0.09321,-1.13794 -0.719077,-2.15396 -0.519333,-3.30544 0.199743,-1.15149 0.719076,-2.84485 -1.171828,-4.26727 -1.238409,-0.92119 -2.33034,-3.57638 -2.916254,-6.08255 h 0.253008 l -0.146478,-2.07268 h -0.466068 a 9.8673252,10.038242 0 0 1 -0.0799,-1.557888 c 0.146479,-3.115784 1.504734,-2.709377 3.542117,-8.344881 a 13.928775,14.170042 0 0 0 0.439435,-4.565301 h 0.359539 L 96.80898,81.904466 h -0.479384 a 70.935548,72.164256 0 0 0 -2.103964,-8.128131 24.129006,24.546955 0 0 1 11.225578,4.064066 21.718768,22.094969 0 0 1 -2.55671,3.671206 c -1.558,1.788188 0.67912,2.221689 1.41152,1.788188 a 17.058089,17.35356 0 0 1 2.14391,-1.110844 c 1.33162,1.490157 0.97208,2.91258 1.33162,4.768503 0.25301,0.704438 0.25301,1.788189 1.59795,1.598533 0.74571,-0.09483 0.99872,-2.181049 1.09193,-4.064066 a 6.5515843,6.6650674 0 0 1 1.82432,1.774642 c 0.55929,0.582516 1.05199,1.625626 2.30371,0.82636 0.67913,-0.4335 0,-2.560361 -0.66581,-4.402737 a 6.1387813,6.2451139 0 0 1 2.26376,0.582516 c 0.70576,0.21675 1.58463,0.785719 2.15723,-0.189657 0.13316,-1.937204 -2.19718,-2.099767 -3.39564,-3.481549 a 15.326979,15.592465 0 0 0 2.66325,0.298031 c 0.73239,0 0.99871,-0.203203 1.2384,-1.354688 0.2397,-1.151485 -3.62201,-1.774642 -4.80715,-2.072674 a 4.9536369,5.0394412 0 0 0 -3.86171,-2.045579 19.34848,19.683624 0 0 0 -7.86989,-6.272208 l 0.25301,-0.623157 -3.821761,-1.04311 v 0.528329 a 18.975625,19.304311 0 0 0 -5.499602,-0.270938 c 3.382322,-3.535737 5.725978,-7.152755 5.725978,-13.005009 0,-8.548085 -7.69678,-16.080153 -15.593303,-16.405278 -0.492701,0 -0.972085,0 -1.451469,0 z"
     inkscape:connector-curvature="0"
     style="fill:#ffffff;stroke-width:1.34310615" />
  <path
     id="path9001"
     class="cls-3"
     d="m 74.051546,50.963381 a 26.8322,27.296973 0 0 0 -7.776677,1.029563 c -1.171829,3.129331 -0.865555,8.128131 4.367722,15.172511 l 1.411521,0.514782 c 1.065298,0.352219 11.172315,0.528329 13.316228,-0.352219 2.143913,-0.880547 11.984605,-7.884287 1.73111,-14.30551 -1.744426,-1.097298 -7.643515,-2.113314 -13.049904,-2.059127 z"
     inkscape:connector-curvature="0"
     style="fill:#00aad4;stroke-width:1.34310615" />
  <g
     id="path9095"
     class="cls-4"
     transform="scale(1.3316228,1.3546885)"
     style="opacity:0.83999999;isolation:isolate">
    <ellipse
       class="cls-2"
       cx="54.77"
       cy="41.91"
       rx="2.8499999"
       ry="2.79"
       id="ellipse14"
       style="fill:#ffffff" />
  </g>
  <path
     id="path5110"
     class="cls-5"
     d="m 36.166876,129.73852 a 2.6632457,2.709377 0 0 0 -1.62458,-0.51478 1.8909044,1.9236577 0 0 0 -1.171828,0.35221 1.3316228,1.3546885 0 0 0 -0.506016,1.16504 q 0,0.79926 1.331622,1.42242 2.143913,1.0702 2.356973,1.21922 a 3.0760487,3.1293304 0 0 1 0.239692,4.87688 3.5154843,3.5763776 0 0 1 -2.343656,0.79926 4.1946119,4.2672688 0 0 1 -2.370289,-0.71798 0.71907633,0.73153179 0 0 1 -0.372854,-0.60961 0.41280308,0.41995343 0 0 1 0.466068,-0.47414 0.86555484,0.88054752 0 0 1 0.479384,0.16256 3.7285439,3.7931278 0 0 0 1.997434,0.58252 2.157229,2.1945954 0 0 0 1.451469,-0.47414 1.9574856,1.9913921 0 0 0 0.625863,-1.59854 2.0373829,2.0726734 0 0 0 -1.251726,-1.89656 l -2.383605,-1.04311 a 2.3037075,2.3436111 0 0 1 -1.251725,-2.12686 2.5034509,2.5468144 0 0 1 0.825606,-2.03203 2.7697755,2.8177521 0 0 1 1.890905,-0.6638 3.6086979,3.6712058 0 0 1 2.183861,0.73153 0.7989737,0.8128131 0 0 1 0.386171,0.65025 0.37285439,0.37931278 0 0 1 -0.42612,0.41995 0.87887107,0.8940944 0 0 1 -0.519333,-0.21675"
     inkscape:connector-curvature="0"
     style="fill:#ffffff;stroke:#f1f2f2;stroke-width:0.67155308px" />
  <path
     id="path5112"
     class="cls-5"
     d="m 43.291058,129.04763 a 0.49270045,0.50123474 0 0 1 0.559282,-0.55543 h 2.503451 a 3.1426299,3.1970648 0 0 1 2.43687,0.98893 3.0494163,3.1022366 0 0 1 0.798973,2.18104 3.1426299,3.1970648 0 0 1 -0.759025,2.15396 2.8629891,2.9125803 0 0 1 -2.263758,0.96183 h -2.263759 v 3.63056 a 0.43943554,0.4470472 0 0 1 -0.492701,0.51478 0.45275176,0.46059409 0 0 1 -0.506016,-0.51478 v -9.36089 m 2.743143,0.46059 h -1.73111 v 4.25372 h 1.957486 a 2.3436562,2.3842517 0 0 0 1.731109,-0.6638 1.9441693,1.9778452 0 0 0 0.585914,-1.46306 1.9042207,1.9372045 0 0 0 -0.639179,-1.47661 2.6632457,2.709377 0 0 0 -1.917537,-0.67734"
     inkscape:connector-curvature="0"
     style="fill:#ffffff;stroke:#f1f2f2;stroke-width:0.67155308px" />
  <path
     id="path5114"
     class="cls-5"
     d="m 55.328929,135.69915 h 4.074766 l -2.010751,-5.70324 -2.064015,5.70324 m 4.527517,1.15148 h -4.820474 l -0.506017,1.55789 q -0.173111,0.54188 -0.625863,0.54188 -0.452751,0 -0.439435,-0.48769 a 0.93213598,0.94828194 0 0 1 0,-0.29803 l 3.115997,-8.96804 a 0.82560616,0.83990687 0 0 1 1.597948,0 l 3.222527,8.96804 a 0.95876844,0.97537571 0 0 1 0,0.31158 0.41280308,0.41995343 0 0 1 -0.466068,0.47414 0.47938422,0.48768786 0 0 1 -0.492701,-0.35222 l -0.639178,-1.74755"
     inkscape:connector-curvature="0"
     style="fill:#ffffff;stroke:#f1f2f2;stroke-width:0.67155308px" />
  <path
     id="path5116"
     class="cls-5"
     d="m 73.33247,137.05383 a 0.51933291,0.52832851 0 0 1 0.372854,-0.16256 0.45275176,0.46059409 0 0 1 0.332906,0.13547 0.46606799,0.47414097 0 0 1 0.133162,0.35222 0.66581142,0.67734425 0 0 1 -0.266325,0.50124 4.2079282,4.2808156 0 0 1 -2.942886,1.17857 4.4476203,4.5246596 0 0 1 -3.275792,-1.35468 5.3930725,5.4864884 0 0 1 -1.491418,-4.06407 5.4862861,5.5813166 0 0 1 1.331623,-3.9015 4.5142014,4.592394 0 0 1 3.102681,-1.55789 4.1147146,4.1859874 0 0 1 3.235844,1.16503 0.66581142,0.67734425 0 0 1 0.266324,0.50123 0.49270045,0.50123474 0 0 1 -0.133162,0.35222 0.45275176,0.46059409 0 0 1 -0.31959,0.0813 0.51933291,0.52832851 0 0 1 -0.372854,-0.16256 2.9562027,3.0074085 0 0 0 -2.170545,-0.90764 3.3956382,3.4544557 0 0 0 -2.530084,1.12439 4.4742527,4.5517533 0 0 0 -1.171828,3.27835 4.4076716,4.4840189 0 0 0 1.158512,3.2377 3.3556895,3.413815 0 0 0 2.503451,1.11084 3.0094676,3.061596 0 0 0 2.210494,-0.92118"
     inkscape:connector-curvature="0"
     style="fill:#ffffff;stroke:#f1f2f2;stroke-width:0.67155308px" />
  <path
     id="path5118"
     class="cls-5"
     d="m 79.005183,129.14245 q 0,-0.6367 0.559281,-0.6367 h 3.502168 a 0.45275176,0.46059409 0 0 1 0.506017,0.51478 0.43943554,0.4470472 0 0 1 -0.506017,0.50124 h -3.049416 v 3.468 h 2.982835 a 0.45275176,0.46059409 0 0 1 0.506017,0.52833 q 0,0.48769 -0.506017,0.48769 h -2.982835 v 3.84731 h 3.169263 q 0.585914,0 0.585914,0.51478 0,0.51478 -0.585914,0.50124 h -3.608698 q -0.372855,0 -0.466068,-0.12193 a 0.87887107,0.8940944 0 0 1 -0.09321,-0.50123 v -9.10351"
     inkscape:connector-curvature="0"
     style="fill:#ffffff;stroke:#f1f2f2;stroke-width:0.67155308px" />
  <path
     id="path5120"
     class="cls-5"
     d="m 90.03102,128.99344 1.41152,8.58872 2.343656,-8.57517 a 0.67912765,0.69089113 0 0 1 0.732393,-0.52833 0.66581142,0.67734425 0 0 1 0.719076,0.52833 l 2.22381,8.57517 1.331623,-8.56163 q 0.09321,-0.56897 0.585914,-0.56897 a 0.51933291,0.52832851 0 0 1 0.412803,0.18966 0.50601668,0.51478163 0 0 1 0.10653,0.47414 l -1.597947,9.03577 a 0.77234124,0.78571933 0 0 1 -0.852239,0.73153 0.66581142,0.67734425 0 0 1 -0.732392,-0.50123 l -2.277076,-8.41262 -2.263758,8.12813 a 0.86555484,0.88054752 0 0 1 -0.905504,0.71799 q -0.70576,0 -0.798974,-0.59606 l -1.478101,-9.10351 a 0.47938422,0.48768786 0 0 1 0.10653,-0.46059 0.51933291,0.52832851 0 0 1 0.399487,-0.17611 q 0.452752,0 0.532649,0.51478"
     inkscape:connector-curvature="0"
     style="fill:#ffffff;stroke:#f1f2f2;stroke-width:0.67155308px" />
  <path
     id="path5122"
     class="cls-5"
     d="m 106.33008,135.69915 h 4.07477 l -2.01075,-5.70324 -2.06402,5.70324 m 4.52752,1.15148 h -4.86042 l -0.50602,1.55789 q -0.17311,0.54188 -0.62586,0.54188 -0.45275,0 -0.43944,-0.48769 a 0.93213598,0.94828194 0 0 1 0,-0.29803 l 3.116,-8.96804 a 0.82560616,0.83990687 0 0 1 1.59795,0 l 3.22252,8.96804 a 0.95876844,0.97537571 0 0 1 0,0.31158 0.41280308,0.41995343 0 0 1 -0.46606,0.47414 0.47938422,0.48768786 0 0 1 -0.4927,-0.35222 l -0.63918,-1.74755"
     inkscape:connector-curvature="0"
     style="fill:#ffffff;stroke:#f1f2f2;stroke-width:0.67155308px" />
  <path
     id="path5124"
     class="cls-5"
     d="m 117.87525,128.99344 a 0.43943554,0.4470472 0 0 1 0.4927,-0.51478 0.45275176,0.46059409 0 0 1 0.50602,0.51478 v 8.84611 h 2.66325 a 0.43943554,0.4470472 0 0 1 0.50601,0.50124 0.45275176,0.46059409 0 0 1 -0.50601,0.51478 h -2.98284 q -0.67913,0 -0.67913,-0.79927 v -9.07641"
     inkscape:connector-curvature="0"
     style="fill:#ffffff;stroke:#f1f2f2;stroke-width:0.67155308px" />
  <path
     id="path5126"
     class="cls-5"
     d="m 127.19661,128.9257 q 0,-0.4335 0.4927,-0.4335 0.4927,0 0.58592,0.4335 v 3.95569 l 4.80716,-4.22662 a 0.49270045,0.50123474 0 0 1 0.31959,-0.12193 0.50601668,0.51478163 0 0 1 0.38617,0.17611 0.49270045,0.50123474 0 0 1 0.17311,0.37932 0.41280308,0.41995343 0 0 1 -0.13317,0.32512 l -4.64736,4.06407 4.88706,4.52466 a 0.49270045,0.50123474 0 0 1 0.17311,0.37931 0.49270045,0.50123474 0 0 1 -0.14648,0.36576 0.50601668,0.51478163 0 0 1 -0.37285,0.14902 0.67912765,0.69089113 0 0 1 -0.46607,-0.21675 l -4.98027,-4.7956 v 4.52466 q 0,0.4606 -0.4927,0.4606 -0.4927,0 -0.51934,-0.4606 v -9.48282"
     inkscape:connector-curvature="0"
     style="fill:#ffffff;stroke:#f1f2f2;stroke-width:0.67155308px" />
</svg>
